<mxfile host="app.diagrams.net" modified="2023-04-05T12:04:11.184Z" agent="Mozilla/5.0 (Windows NT 10.0; Win64; x64) AppleWebKit/537.36 (KHTML, like Gecko) Chrome/111.0.0.0 Safari/537.36" version="21.1.4" etag="_FUTBZL0-suPN5qsOSfo" type="device">
  <diagram id="38O3zhfPyVJQ0e6laIWM" name="第 1 页">
    <mxGraphModel dx="1750" dy="930" grid="1" gridSize="10" guides="1" tooltips="1" connect="1" arrows="1" fold="1" page="1" pageScale="1" pageWidth="827" pageHeight="1169" math="0" shadow="0">
      <root>
        <mxCell id="0" />
        <mxCell id="1" parent="0" />
        <mxCell id="3FipJwlxYP0oJey7ErP7-29" value="" style="rounded=0;whiteSpace=wrap;html=1;strokeColor=#D0CEE2;fontColor=#1A1A1A;fillColor=#5D7F99;" vertex="1" parent="1">
          <mxGeometry x="330" y="60" width="910" height="700" as="geometry" />
        </mxCell>
        <mxCell id="3FipJwlxYP0oJey7ErP7-5" value="&lt;font style=&quot;font-size: 24px;&quot;&gt;客户端&lt;/font&gt;" style="rounded=0;whiteSpace=wrap;html=1;strokeColor=#2D7600;fillColor=#60a917;fontColor=#ffffff;shadow=1;" vertex="1" parent="1">
          <mxGeometry x="360" y="70" width="260" height="60" as="geometry" />
        </mxCell>
        <mxCell id="3FipJwlxYP0oJey7ErP7-6" value="&lt;font style=&quot;font-size: 24px;&quot;&gt;ALB(应用负载均衡)&lt;/font&gt;" style="rounded=0;whiteSpace=wrap;html=1;strokeColor=#005700;fontColor=#ffffff;fillColor=#008a00;shadow=1;" vertex="1" parent="1">
          <mxGeometry x="360" y="200" width="540" height="100" as="geometry" />
        </mxCell>
        <mxCell id="3FipJwlxYP0oJey7ErP7-7" value="Nginx" style="rounded=1;whiteSpace=wrap;html=1;strokeColor=#d79b00;fillColor=#ffe6cc;shadow=1;" vertex="1" parent="1">
          <mxGeometry x="360" y="270" width="80" height="30" as="geometry" />
        </mxCell>
        <mxCell id="3FipJwlxYP0oJey7ErP7-8" value="LVS" style="rounded=1;whiteSpace=wrap;html=1;strokeColor=#d79b00;fillColor=#ffe6cc;shadow=1;" vertex="1" parent="1">
          <mxGeometry x="440" y="270" width="80" height="30" as="geometry" />
        </mxCell>
        <mxCell id="3FipJwlxYP0oJey7ErP7-9" value="&lt;font style=&quot;font-size: 24px;&quot;&gt;API网关&lt;/font&gt;" style="rounded=0;whiteSpace=wrap;html=1;strokeColor=#C73500;fontColor=#000000;fillColor=#fa6800;shadow=1;" vertex="1" parent="1">
          <mxGeometry x="360" y="370" width="540" height="60" as="geometry" />
        </mxCell>
        <mxCell id="3FipJwlxYP0oJey7ErP7-11" value="&lt;font style=&quot;font-size: 24px;&quot;&gt;API服务&lt;/font&gt;" style="rounded=0;whiteSpace=wrap;html=1;strokeColor=#BD7000;fontColor=#000000;fillColor=#f0a30a;shadow=1;" vertex="1" parent="1">
          <mxGeometry x="360" y="520" width="830" height="60" as="geometry" />
        </mxCell>
        <mxCell id="3FipJwlxYP0oJey7ErP7-12" value="数据库" style="shape=cylinder3;whiteSpace=wrap;html=1;boundedLbl=1;backgroundOutline=1;size=15;strokeColor=#314354;fontColor=#ffffff;fillColor=#647687;shadow=1;" vertex="1" parent="1">
          <mxGeometry x="400" y="670" width="60" height="80" as="geometry" />
        </mxCell>
        <mxCell id="3FipJwlxYP0oJey7ErP7-13" value="数据库" style="shape=cylinder3;whiteSpace=wrap;html=1;boundedLbl=1;backgroundOutline=1;size=15;strokeColor=#314354;fontColor=#ffffff;fillColor=#647687;shadow=1;" vertex="1" parent="1">
          <mxGeometry x="480" y="670" width="60" height="80" as="geometry" />
        </mxCell>
        <mxCell id="3FipJwlxYP0oJey7ErP7-14" value="数据库" style="shape=cylinder3;whiteSpace=wrap;html=1;boundedLbl=1;backgroundOutline=1;size=15;strokeColor=#314354;fontColor=#ffffff;fillColor=#647687;shadow=1;" vertex="1" parent="1">
          <mxGeometry x="560" y="670" width="60" height="80" as="geometry" />
        </mxCell>
        <mxCell id="3FipJwlxYP0oJey7ErP7-16" value="&lt;font style=&quot;font-size: 24px;&quot;&gt;JOB调度&lt;/font&gt;" style="rounded=0;whiteSpace=wrap;html=1;strokeColor=#2D7600;fillColor=#60a917;fontColor=#ffffff;shadow=1;" vertex="1" parent="1">
          <mxGeometry x="930" y="70" width="260" height="60" as="geometry" />
        </mxCell>
        <mxCell id="3FipJwlxYP0oJey7ErP7-18" value="&lt;font style=&quot;font-size: 24px;&quot;&gt;API中心&lt;/font&gt;" style="rounded=0;whiteSpace=wrap;html=1;strokeColor=#2D7600;fillColor=#60a917;fontColor=#ffffff;shadow=1;" vertex="1" parent="1">
          <mxGeometry x="640" y="70" width="260" height="60" as="geometry" />
        </mxCell>
        <mxCell id="3FipJwlxYP0oJey7ErP7-19" value="" style="shape=flexArrow;endArrow=classic;html=1;rounded=0;fontColor=#1A1A1A;shadow=1;" edge="1" parent="1">
          <mxGeometry width="50" height="50" relative="1" as="geometry">
            <mxPoint x="620" y="460" as="sourcePoint" />
            <mxPoint x="620.5" y="510" as="targetPoint" />
          </mxGeometry>
        </mxCell>
        <mxCell id="3FipJwlxYP0oJey7ErP7-20" value="" style="shape=flexArrow;endArrow=classic;html=1;rounded=0;fontColor=#1A1A1A;shadow=1;" edge="1" parent="1">
          <mxGeometry width="50" height="50" relative="1" as="geometry">
            <mxPoint x="774.5" y="140" as="sourcePoint" />
            <mxPoint x="775" y="190" as="targetPoint" />
          </mxGeometry>
        </mxCell>
        <mxCell id="3FipJwlxYP0oJey7ErP7-21" value="" style="shape=flexArrow;endArrow=classic;html=1;rounded=0;fontColor=#1A1A1A;shadow=1;" edge="1" parent="1">
          <mxGeometry width="50" height="50" relative="1" as="geometry">
            <mxPoint x="620" y="310" as="sourcePoint" />
            <mxPoint x="620.5" y="360" as="targetPoint" />
          </mxGeometry>
        </mxCell>
        <mxCell id="3FipJwlxYP0oJey7ErP7-22" value="" style="shape=flexArrow;endArrow=classic;html=1;rounded=0;fontColor=#1A1A1A;shadow=1;" edge="1" parent="1">
          <mxGeometry width="50" height="50" relative="1" as="geometry">
            <mxPoint x="500" y="140" as="sourcePoint" />
            <mxPoint x="500.5" y="190" as="targetPoint" />
          </mxGeometry>
        </mxCell>
        <mxCell id="3FipJwlxYP0oJey7ErP7-24" value="&lt;font style=&quot;font-size: 24px;&quot;&gt;RPC服务&lt;/font&gt;" style="rounded=0;whiteSpace=wrap;html=1;strokeColor=#b46504;fillColor=#fad7ac;shadow=1;" vertex="1" parent="1">
          <mxGeometry x="890" y="670" width="300" height="60" as="geometry" />
        </mxCell>
        <mxCell id="3FipJwlxYP0oJey7ErP7-25" value="" style="shape=flexArrow;endArrow=classic;html=1;rounded=0;fontColor=#1A1A1A;shadow=1;" edge="1" parent="1">
          <mxGeometry width="50" height="50" relative="1" as="geometry">
            <mxPoint x="1060" y="140" as="sourcePoint" />
            <mxPoint x="1061" y="510" as="targetPoint" />
          </mxGeometry>
        </mxCell>
        <mxCell id="3FipJwlxYP0oJey7ErP7-26" value="" style="shape=flexArrow;endArrow=classic;html=1;rounded=0;fontColor=#1A1A1A;shadow=1;" edge="1" parent="1">
          <mxGeometry width="50" height="50" relative="1" as="geometry">
            <mxPoint x="520" y="590" as="sourcePoint" />
            <mxPoint x="520.5" y="640" as="targetPoint" />
          </mxGeometry>
        </mxCell>
        <mxCell id="3FipJwlxYP0oJey7ErP7-27" value="" style="shape=flexArrow;endArrow=classic;html=1;rounded=0;fontColor=#1A1A1A;shadow=1;" edge="1" parent="1">
          <mxGeometry width="50" height="50" relative="1" as="geometry">
            <mxPoint x="880" y="700" as="sourcePoint" />
            <mxPoint x="650" y="700" as="targetPoint" />
          </mxGeometry>
        </mxCell>
        <mxCell id="3FipJwlxYP0oJey7ErP7-28" value="&lt;font style=&quot;font-size: 24px;&quot;&gt;公&lt;br&gt;共&lt;br&gt;服&lt;br&gt;务&lt;/font&gt;" style="rounded=0;whiteSpace=wrap;html=1;strokeColor=#001DBC;fontColor=#ffffff;fillColor=#0050ef;shadow=1;" vertex="1" parent="1">
          <mxGeometry x="1241" y="370" width="60" height="390" as="geometry" />
        </mxCell>
        <mxCell id="3FipJwlxYP0oJey7ErP7-35" value="" style="rounded=0;whiteSpace=wrap;html=1;strokeColor=#82b366;fillColor=#d5e8d4;" vertex="1" parent="1">
          <mxGeometry x="210" y="60" width="120" height="700" as="geometry" />
        </mxCell>
        <mxCell id="3FipJwlxYP0oJey7ErP7-36" value="&lt;font style=&quot;font-size: 24px;&quot;&gt;IDAAS&lt;/font&gt;" style="rounded=1;whiteSpace=wrap;html=1;strokeColor=#6F0000;fontColor=#ffffff;fillColor=#a20025;" vertex="1" parent="1">
          <mxGeometry x="225" y="70" width="90" height="70" as="geometry" />
        </mxCell>
        <mxCell id="3FipJwlxYP0oJey7ErP7-38" value="&lt;font style=&quot;font-size: 24px;&quot;&gt;S3&lt;/font&gt;" style="rounded=1;whiteSpace=wrap;html=1;strokeColor=#D0CEE2;fontColor=#1A1A1A;fillColor=#5D7F99;" vertex="1" parent="1">
          <mxGeometry x="225" y="470" width="90" height="70" as="geometry" />
        </mxCell>
        <mxCell id="3FipJwlxYP0oJey7ErP7-39" value="&lt;font style=&quot;font-size: 24px;&quot;&gt;KMS&lt;/font&gt;" style="rounded=1;whiteSpace=wrap;html=1;strokeColor=#D0CEE2;fontColor=#1A1A1A;fillColor=#5D7F99;" vertex="1" parent="1">
          <mxGeometry x="225" y="560" width="90" height="70" as="geometry" />
        </mxCell>
      </root>
    </mxGraphModel>
  </diagram>
</mxfile>
